# Blender v3.0.1 OBJ File: ''
# www.blender.org
mtllib materials/cube.mtl
o Cube
v 0.500000 0.500000 -0.500000
v 0.500000 -0.500000 -0.500000
v 0.500000 0.500000 0.500000
v 0.500000 -0.500000 0.500000
v -0.500000 0.500000 -0.500000
v -0.500000 -0.500000 -0.500000
v -0.500000 0.500000 0.500000
v -0.500000 -0.500000 0.500000
vt 0.875000 0.500000
vt 0.625000 0.750000
vt 0.625000 0.500000
vt 0.875000 0.750000
vt 0.375000 0.500000
vt 0.125000 0.750000
vt 0.125000 0.500000
vt 0.375000 0.750000
vt 0.625000 0.000000
vt 0.375000 0.250000
vt 0.375000 0.000000
vt 0.625000 0.250000
vt 0.375000 1.000000
vt 0.625000 1.000000
vn 0.0000 1.0000 0.0000
vn 0.0000 -1.0000 0.0000
vn 1.0000 0.0000 0.0000
vn -1.0000 0.0000 0.0000
vn 0.0000 0.0000 -1.0000
vn 0.0000 0.0000 1.0000
usemtl green
s off
f 5/1/1 3/2/1 1/3/1
f 5/1/1 7/4/1 3/2/1
usemtl blue
f 2/5/2 8/6/2 6/7/2
f 2/5/2 4/8/2 8/6/2
usemtl red
f 1/3/3 4/8/3 2/5/3
f 1/3/3 3/2/3 4/8/3
usemtl orange
f 7/9/4 6/10/4 8/11/4
f 7/9/4 5/12/4 6/10/4
usemtl white
f 5/12/5 2/5/5 6/10/5
f 5/12/5 1/3/5 2/5/5
usemtl yellow
f 3/2/6 8/13/6 4/8/6
f 3/2/6 7/14/6 8/13/6
