# Blender v3.0.1 OBJ File: 'ice.blend'
# www.blender.org
mtllib materials/ice.mtl
o rings2_Circle.004
v 16.500000 0.010000 -0.150000
v 16.470736 0.010000 -0.147118
v 16.442598 0.010000 -0.138582
v 16.416664 0.010000 -0.124720
v 16.393934 0.010000 -0.106066
v 16.375280 0.010000 -0.083336
v 16.361418 0.010000 -0.057403
v 16.352882 0.010000 -0.029264
v 16.350000 0.010000 0.000000
v 16.352882 0.010000 0.029264
v 16.361418 0.010000 0.057403
v 16.375280 0.010000 0.083336
v 16.393934 0.010000 0.106066
v 16.416664 0.010000 0.124720
v 16.442598 0.010000 0.138582
v 16.470736 0.010000 0.147118
v 16.500000 0.010000 0.150000
v 16.529264 0.010000 0.147118
v 16.557402 0.010000 0.138582
v 16.583336 0.010000 0.124720
v 16.606066 0.010000 0.106066
v 16.624720 0.010000 0.083336
v 16.638582 0.010000 0.057403
v 16.647118 0.010000 0.029264
v 16.650000 0.010000 -0.000000
v 16.647118 0.010000 -0.029264
v 16.638582 0.010000 -0.057403
v 16.624720 0.010000 -0.083336
v 16.606066 0.010000 -0.106066
v 16.583336 0.010000 -0.124720
v 16.557402 0.010000 -0.138582
v 16.529264 0.010000 -0.147118
v 16.500000 0.010000 -2.000000
v 16.109819 0.010000 -1.961571
v 15.734633 0.010000 -1.847759
v 15.388860 0.010000 -1.662939
v 15.085787 0.010000 -1.414214
v 14.837061 0.010000 -1.111140
v 14.652241 0.010000 -0.765367
v 14.538429 0.010000 -0.390181
v 14.500000 0.010000 0.000000
v 14.538429 0.010000 0.390181
v 14.652241 0.010000 0.765367
v 14.837061 0.010000 1.111140
v 15.085787 0.010000 1.414214
v 15.388860 0.010000 1.662939
v 15.734633 0.010000 1.847759
v 16.109819 0.010000 1.961571
v 16.500000 0.010000 2.000000
v 16.890181 0.010000 1.961571
v 17.265368 0.010000 1.847759
v 17.611141 0.010000 1.662939
v 17.914213 0.010000 1.414214
v 18.162939 0.010000 1.111141
v 18.347759 0.010000 0.765367
v 18.461571 0.010000 0.390181
v 18.500000 0.010000 -0.000000
v 18.461571 0.010000 -0.390181
v 18.347759 0.010000 -0.765367
v 18.162939 0.010000 -1.111140
v 17.914213 0.010000 -1.414213
v 17.611141 0.010000 -1.662939
v 17.265368 0.010000 -1.847759
v 16.890181 0.010000 -1.961571
v 16.500000 0.010000 -1.200000
v 16.265892 0.010000 -1.176942
v 16.040779 0.010000 -1.108655
v 15.833316 0.010000 -0.997764
v 15.651472 0.010000 -0.848528
v 15.502236 0.010000 -0.666684
v 15.391344 0.010000 -0.459220
v 15.323057 0.010000 -0.234108
v 15.300000 0.010000 0.000000
v 15.323057 0.010000 0.234108
v 15.391344 0.010000 0.459220
v 15.502236 0.010000 0.666684
v 15.651472 0.010000 0.848528
v 15.833316 0.010000 0.997764
v 16.040779 0.010000 1.108655
v 16.265892 0.010000 1.176942
v 16.500000 0.010000 1.200000
v 16.734108 0.010000 1.176942
v 16.959221 0.010000 1.108655
v 17.166685 0.010000 0.997763
v 17.348528 0.010000 0.848528
v 17.497763 0.010000 0.666685
v 17.608656 0.010000 0.459220
v 17.676943 0.010000 0.234108
v 17.700001 0.010000 -0.000000
v 17.676943 0.010000 -0.234109
v 17.608656 0.010000 -0.459220
v 17.497765 0.010000 -0.666684
v 17.348528 0.010000 -0.848528
v 17.166685 0.010000 -0.997764
v 16.959221 0.010000 -1.108656
v 16.734108 0.010000 -1.176942
v 16.500000 0.010000 -0.600000
v 16.382946 0.010000 -0.588471
v 16.270390 0.010000 -0.554328
v 16.166658 0.010000 -0.498882
v 16.075735 0.010000 -0.424264
v 16.001118 0.010000 -0.333342
v 15.945672 0.010000 -0.229610
v 15.911529 0.010000 -0.117054
v 15.900000 0.010000 0.000000
v 15.911529 0.010000 0.117054
v 15.945672 0.010000 0.229610
v 16.001118 0.010000 0.333342
v 16.075735 0.010000 0.424264
v 16.166658 0.010000 0.498882
v 16.270390 0.010000 0.554328
v 16.382946 0.010000 0.588471
v 16.500000 0.010000 0.600000
v 16.617054 0.010000 0.588471
v 16.729610 0.010000 0.554328
v 16.833342 0.010000 0.498882
v 16.924265 0.010000 0.424264
v 16.998882 0.010000 0.333342
v 17.054327 0.010000 0.229610
v 17.088470 0.010000 0.117054
v 17.100000 0.010000 -0.000000
v 17.088470 0.010000 -0.117054
v 17.054327 0.010000 -0.229610
v 16.998882 0.010000 -0.333342
v 16.924265 0.010000 -0.424264
v 16.833342 0.010000 -0.498882
v 16.729610 0.010000 -0.554328
v 16.617054 0.010000 -0.588471
vn 0.0000 -1.0000 0.0000
usemtl Material.002
s off
f 87//1 56//1 55//1
f 86//1 55//1 54//1
f 53//1 86//1 54//1
f 52//1 85//1 53//1
f 83//1 52//1 51//1
f 82//1 51//1 50//1
f 49//1 82//1 50//1
f 80//1 49//1 48//1
f 79//1 48//1 47//1
f 78//1 47//1 46//1
f 77//1 46//1 45//1
f 76//1 45//1 44//1
f 75//1 44//1 43//1
f 74//1 43//1 42//1
f 41//1 74//1 42//1
f 72//1 41//1 40//1
f 39//1 72//1 40//1
f 70//1 39//1 38//1
f 69//1 38//1 37//1
f 68//1 37//1 36//1
f 67//1 36//1 35//1
f 34//1 67//1 35//1
f 65//1 34//1 33//1
f 96//1 33//1 64//1
f 95//1 64//1 63//1
f 94//1 63//1 62//1
f 93//1 62//1 61//1
f 60//1 93//1 61//1
f 91//1 60//1 59//1
f 90//1 59//1 58//1
f 89//1 58//1 57//1
f 88//1 57//1 56//1
f 87//1 88//1 56//1
f 86//1 87//1 55//1
f 53//1 85//1 86//1
f 52//1 84//1 85//1
f 83//1 84//1 52//1
f 82//1 83//1 51//1
f 49//1 81//1 82//1
f 80//1 81//1 49//1
f 79//1 80//1 48//1
f 78//1 79//1 47//1
f 77//1 78//1 46//1
f 76//1 77//1 45//1
f 75//1 76//1 44//1
f 74//1 75//1 43//1
f 41//1 73//1 74//1
f 72//1 73//1 41//1
f 39//1 71//1 72//1
f 70//1 71//1 39//1
f 69//1 70//1 38//1
f 68//1 69//1 37//1
f 67//1 68//1 36//1
f 34//1 66//1 67//1
f 65//1 66//1 34//1
f 96//1 65//1 33//1
f 95//1 96//1 64//1
f 94//1 95//1 63//1
f 93//1 94//1 62//1
f 60//1 92//1 93//1
f 91//1 92//1 60//1
f 90//1 91//1 59//1
f 89//1 90//1 58//1
f 88//1 89//1 57//1
usemtl Material.001
f 3//1 27//1 19//1
f 3//1 2//1 1//1
f 1//1 32//1 31//1
f 31//1 30//1 29//1
f 29//1 28//1 27//1
f 27//1 26//1 25//1
f 25//1 24//1 27//1
f 24//1 23//1 27//1
f 23//1 22//1 21//1
f 21//1 20//1 19//1
f 19//1 18//1 17//1
f 17//1 16//1 15//1
f 15//1 14//1 13//1
f 13//1 12//1 11//1
f 11//1 10//1 7//1
f 10//1 9//1 7//1
f 9//1 8//1 7//1
f 7//1 6//1 5//1
f 5//1 4//1 7//1
f 4//1 3//1 7//1
f 3//1 1//1 31//1
f 31//1 29//1 3//1
f 29//1 27//1 3//1
f 23//1 21//1 27//1
f 21//1 19//1 27//1
f 19//1 17//1 15//1
f 15//1 13//1 11//1
f 19//1 15//1 11//1
f 11//1 7//1 19//1
f 7//1 3//1 19//1
usemtl Material
f 11//1 106//1 10//1
f 11//1 108//1 107//1
f 13//1 108//1 12//1
f 14//1 109//1 13//1
f 15//1 110//1 14//1
f 16//1 111//1 15//1
f 16//1 113//1 112//1
f 18//1 113//1 17//1
f 19//1 114//1 18//1
f 20//1 115//1 19//1
f 21//1 116//1 20//1
f 22//1 117//1 21//1
f 23//1 118//1 22//1
f 23//1 120//1 119//1
f 24//1 121//1 120//1
f 26//1 121//1 25//1
f 27//1 122//1 26//1
f 28//1 123//1 27//1
f 28//1 125//1 124//1
f 30//1 125//1 29//1
f 31//1 126//1 30//1
f 32//1 127//1 31//1
f 1//1 128//1 32//1
f 1//1 98//1 97//1
f 3//1 98//1 2//1
f 4//1 99//1 3//1
f 5//1 100//1 4//1
f 6//1 101//1 5//1
f 6//1 103//1 102//1
f 8//1 103//1 7//1
f 9//1 104//1 8//1
f 10//1 105//1 9//1
f 11//1 107//1 106//1
f 11//1 12//1 108//1
f 13//1 109//1 108//1
f 14//1 110//1 109//1
f 15//1 111//1 110//1
f 16//1 112//1 111//1
f 16//1 17//1 113//1
f 18//1 114//1 113//1
f 19//1 115//1 114//1
f 20//1 116//1 115//1
f 21//1 117//1 116//1
f 22//1 118//1 117//1
f 23//1 119//1 118//1
f 23//1 24//1 120//1
f 24//1 25//1 121//1
f 26//1 122//1 121//1
f 27//1 123//1 122//1
f 28//1 124//1 123//1
f 28//1 29//1 125//1
f 30//1 126//1 125//1
f 31//1 127//1 126//1
f 32//1 128//1 127//1
f 1//1 97//1 128//1
f 1//1 2//1 98//1
f 3//1 99//1 98//1
f 4//1 100//1 99//1
f 5//1 101//1 100//1
f 6//1 102//1 101//1
f 6//1 7//1 103//1
f 8//1 104//1 103//1
f 9//1 105//1 104//1
f 10//1 106//1 105//1
o ice_Plane.008
v -16.505426 0.000000 2.250664
v -16.494951 0.000000 2.249889
v -16.505426 0.000000 -2.249336
v -16.494951 0.000000 -2.250111
v -22.499950 0.000000 2.249889
v 22.500053 0.000000 2.249889
v -22.499950 0.000000 -2.250111
v 22.500053 0.000000 -2.250111
v -22.500427 0.000000 0.023164
v 22.500053 0.000000 0.022389
v -22.499950 0.000000 -0.022611
v 22.500053 0.000000 -0.022611
v -10.549950 0.000000 2.249890
v -10.449950 0.000000 2.249890
v -10.549950 0.000000 -2.250111
v -10.449950 0.000000 -2.250111
v 10.450053 0.000000 2.249890
v 10.550052 0.000000 2.249890
v 10.450053 0.000000 -2.250111
v 10.550052 0.000000 -2.250111
v -10.550426 0.000000 0.023164
v 10.450049 0.000000 0.022389
v 10.550050 0.000000 0.022389
v -10.449950 0.000000 0.022389
v -10.449950 0.000000 -0.022611
v 10.450049 0.000000 -0.022611
v 10.550050 0.000000 -0.022611
v -10.549950 0.000000 -0.022611
v -18.504950 0.000000 2.249889
v -18.494951 0.000000 2.249889
v -18.504950 0.000000 -2.250111
v -18.494951 0.000000 -2.250111
v 18.495052 0.000000 2.249889
v 18.505051 0.000000 2.249889
v 18.495052 0.000000 -2.250111
v 18.505051 0.000000 -2.250111
v 16.495052 0.000000 2.249889
v 16.505051 0.000000 2.249889
v 16.495052 0.000000 -2.250111
v 16.505051 0.000000 -2.250111
v 18.495052 0.000000 -0.022611
v 16.505051 0.000000 -0.022611
v 16.495052 0.000000 -0.022611
v 18.505051 0.000000 0.022389
v 18.505051 0.000000 -0.022611
v 18.495052 0.000000 0.022389
v 16.505051 0.000000 0.022389
v 16.495052 0.000000 0.022389
v -16.505426 0.000000 -0.022611
v -18.504950 0.000000 0.023164
v -18.494951 0.000000 0.023164
v -16.505426 0.000000 0.023164
v -16.494951 0.000000 0.023164
v -18.504950 0.000000 -0.022611
v -18.494949 0.000000 -0.022611
v -16.494951 0.000000 -0.022611
vt 0.000000 0.000000
vt 0.000000 0.000000
vt 0.000000 0.000000
vt 0.000000 0.000000
vt 0.000000 0.000000
vt 0.000000 0.000000
vt 0.000000 0.000000
vt 0.000000 0.000000
vt 0.000000 0.000000
vt 0.000000 1.000000
vt 1.000000 0.505000
vt 0.000000 0.505000
vt 0.000000 0.000000
vt 0.000000 0.000000
vt 0.000000 0.000000
vt 0.000000 0.000000
vt 0.000000 0.000000
vt 0.000000 0.000000
vt 0.000000 0.000000
vt 1.000000 0.000000
vt 0.000000 0.000000
vt 0.000000 0.505000
vt 1.000000 1.000000
vt 1.000000 0.505000
vt 0.000000 0.000000
vt 1.000000 0.000000
vt 0.000000 0.000000
vt 0.000000 0.000000
vt 1.000000 0.000000
vt 0.000000 0.000000
vt 1.000000 1.000000
vt 0.000000 0.000000
vt 0.000000 0.000000
vt 0.000000 0.000000
vt 0.000000 0.000000
vt 0.000000 0.000000
vt 0.000000 0.000000
vt 0.000000 0.000000
vt 0.000000 0.000000
vt 0.000000 0.000000
vt 0.000000 0.000000
vt 0.000000 0.000000
vt 0.000000 0.000000
vt 0.000000 1.000000
vt 0.000000 0.000000
vt 1.000000 1.000000
vt 0.000000 0.000000
vt 0.000000 0.000000
vt 0.000000 0.000000
vt 0.000000 1.000000
vt 0.000000 0.000000
vt 0.000000 0.000000
vt 1.000000 0.505000
vt 0.000000 0.000000
vt 0.000000 0.000000
vt 0.000000 0.000000
vt 1.000000 0.495000
vt 0.000000 0.505000
vt 0.000000 0.495000
vt 0.000000 0.000000
vt 0.000000 0.000000
vt 0.000000 0.000000
vt 1.000000 0.495000
vn 0.0000 1.0000 0.0000
vn 0.0000 -1.0000 0.0000
usemtl Material.001
s off
f 149/1/2 130/2/2 141/3/2
f 154/4/2 144/5/2 153/6/2
f 183/7/3 131/8/3 177/9/3
f 163/10/2 170/11/2 169/12/2
f 142/13/2 150/14/2 152/15/2
f 156/16/2 132/17/2 184/18/2
f 176/19/2 146/20/2 165/21/2
f 171/22/2 148/23/2 155/24/2
f 174/25/2 166/26/2 161/27/2
f 138/28/2 162/29/2 134/30/2
f 164/31/2 140/32/2 136/33/2
f 158/34/2 180/35/2 179/36/2
f 182/37/2 135/38/2 139/39/2
f 133/40/2 178/41/2 137/42/2
f 149/1/2 181/43/2 130/2/2
f 154/4/2 147/44/2 144/5/2
f 183/7/3 160/45/3 131/8/3
f 163/10/2 168/46/2 170/11/2
f 142/13/2 145/47/2 150/14/2
f 156/16/2 143/48/2 132/17/2
f 176/19/2 151/49/2 146/20/2
f 171/22/2 167/50/2 148/23/2
f 174/25/2 175/51/2 166/26/2
f 138/28/2 172/52/2 162/29/2
f 164/31/2 173/53/2 140/32/2
f 158/34/2 129/54/2 180/35/2
f 182/37/2 159/55/2 135/38/2
f 133/40/2 157/56/2 178/41/2
usemtl Material.002
f 139/39/2 138/28/2 140/32/2
f 139/39/2 137/42/2 138/28/2
usemtl Material
f 151/57/2 145/47/2 146/20/2
f 142/13/2 149/1/2 141/3/2
f 155/24/2 147/44/2 154/58/2
f 144/5/2 156/16/2 153/6/2
f 151/57/2 150/14/2 145/47/2
f 142/13/2 152/15/2 149/1/2
f 155/24/2 148/23/2 147/44/2
f 144/5/2 143/48/2 156/16/2
usemtl Material.003
f 171/22/2 168/46/2 167/50/2
f 166/26/2 176/59/2 165/21/2
f 164/31/2 169/60/2 173/61/2
f 161/27/2 172/52/2 174/25/2
f 182/37/3 160/45/3 183/7/3
f 131/8/2 184/18/2 132/17/2
f 130/2/2 180/35/2 129/54/2
f 179/36/2 157/56/2 158/34/2
f 171/22/2 170/62/2 168/46/2
f 166/26/2 175/63/2 176/59/2
f 164/31/2 163/10/2 169/60/2
f 161/27/2 162/29/2 172/52/2
f 182/37/3 159/55/3 160/45/3
f 131/8/2 177/9/2 184/18/2
f 130/2/2 181/43/2 180/35/2
f 179/36/2 178/41/2 157/56/2
l 130 142
l 161 146
l 142 161
l 164 148
l 131 135
l 133 129
l 143 131
o rings1_Circle.005
v -16.500000 0.010000 -0.150000
v -16.529264 0.010000 -0.147118
v -16.557402 0.010000 -0.138582
v -16.583336 0.010000 -0.124720
v -16.606066 0.010000 -0.106066
v -16.624720 0.010000 -0.083336
v -16.638582 0.010000 -0.057403
v -16.647118 0.010000 -0.029264
v -16.650000 0.010000 0.000000
v -16.647118 0.010000 0.029264
v -16.638582 0.010000 0.057403
v -16.624720 0.010000 0.083336
v -16.606066 0.010000 0.106066
v -16.583336 0.010000 0.124720
v -16.557402 0.010000 0.138582
v -16.529264 0.010000 0.147118
v -16.500000 0.010000 0.150000
v -16.470736 0.010000 0.147118
v -16.442598 0.010000 0.138582
v -16.416664 0.010000 0.124720
v -16.393934 0.010000 0.106066
v -16.375280 0.010000 0.083336
v -16.361418 0.010000 0.057403
v -16.352882 0.010000 0.029264
v -16.350000 0.010000 -0.000000
v -16.352882 0.010000 -0.029264
v -16.361418 0.010000 -0.057403
v -16.375280 0.010000 -0.083336
v -16.393934 0.010000 -0.106066
v -16.416664 0.010000 -0.124720
v -16.442598 0.010000 -0.138582
v -16.470736 0.010000 -0.147118
v -16.500000 0.010000 -2.000000
v -16.890181 0.010000 -1.961571
v -17.265368 0.010000 -1.847759
v -17.611141 0.010000 -1.662939
v -17.914213 0.010000 -1.414214
v -18.162939 0.010000 -1.111140
v -18.347759 0.010000 -0.765367
v -18.461571 0.010000 -0.390181
v -18.500000 0.010000 0.000000
v -18.461571 0.010000 0.390181
v -18.347759 0.010000 0.765367
v -18.162939 0.010000 1.111140
v -17.914213 0.010000 1.414214
v -17.611141 0.010000 1.662939
v -17.265368 0.010000 1.847759
v -16.890181 0.010000 1.961571
v -16.500000 0.010000 2.000000
v -16.109819 0.010000 1.961571
v -15.734633 0.010000 1.847759
v -15.388860 0.010000 1.662939
v -15.085787 0.010000 1.414214
v -14.837061 0.010000 1.111141
v -14.652241 0.010000 0.765367
v -14.538429 0.010000 0.390181
v -14.500000 0.010000 -0.000000
v -14.538429 0.010000 -0.390181
v -14.652241 0.010000 -0.765367
v -14.837061 0.010000 -1.111140
v -15.085786 0.010000 -1.414213
v -15.388860 0.010000 -1.662939
v -15.734633 0.010000 -1.847759
v -16.109819 0.010000 -1.961571
v -16.500000 0.010000 -1.200000
v -16.734108 0.010000 -1.176942
v -16.959221 0.010000 -1.108655
v -17.166685 0.010000 -0.997764
v -17.348528 0.010000 -0.848528
v -17.497763 0.010000 -0.666684
v -17.608656 0.010000 -0.459220
v -17.676943 0.010000 -0.234108
v -17.700001 0.010000 0.000000
v -17.676943 0.010000 0.234108
v -17.608656 0.010000 0.459220
v -17.497765 0.010000 0.666684
v -17.348528 0.010000 0.848528
v -17.166685 0.010000 0.997764
v -16.959221 0.010000 1.108655
v -16.734108 0.010000 1.176942
v -16.500000 0.010000 1.200000
v -16.265892 0.010000 1.176942
v -16.040779 0.010000 1.108655
v -15.833316 0.010000 0.997763
v -15.651472 0.010000 0.848528
v -15.502236 0.010000 0.666685
v -15.391344 0.010000 0.459220
v -15.323057 0.010000 0.234108
v -15.300000 0.010000 -0.000000
v -15.323057 0.010000 -0.234109
v -15.391345 0.010000 -0.459220
v -15.502236 0.010000 -0.666684
v -15.651472 0.010000 -0.848528
v -15.833316 0.010000 -0.997764
v -16.040779 0.010000 -1.108656
v -16.265892 0.010000 -1.176942
v -16.500000 0.010000 -0.600000
v -16.617054 0.010000 -0.588471
v -16.729610 0.010000 -0.554328
v -16.833342 0.010000 -0.498882
v -16.924265 0.010000 -0.424264
v -16.998882 0.010000 -0.333342
v -17.054327 0.010000 -0.229610
v -17.088470 0.010000 -0.117054
v -17.100000 0.010000 0.000000
v -17.088470 0.010000 0.117054
v -17.054327 0.010000 0.229610
v -16.998882 0.010000 0.333342
v -16.924265 0.010000 0.424264
v -16.833342 0.010000 0.498882
v -16.729610 0.010000 0.554328
v -16.617054 0.010000 0.588471
v -16.500000 0.010000 0.600000
v -16.382946 0.010000 0.588471
v -16.270390 0.010000 0.554328
v -16.166658 0.010000 0.498882
v -16.075735 0.010000 0.424264
v -16.001118 0.010000 0.333342
v -15.945672 0.010000 0.229610
v -15.911529 0.010000 0.117054
v -15.900000 0.010000 -0.000000
v -15.911529 0.010000 -0.117054
v -15.945672 0.010000 -0.229610
v -16.001118 0.010000 -0.333342
v -16.075735 0.010000 -0.424264
v -16.166658 0.010000 -0.498882
v -16.270390 0.010000 -0.554328
v -16.382946 0.010000 -0.588471
vn 0.0000 -1.0000 0.0000
usemtl Material.002
s off
f 271//4 240//4 239//4
f 270//4 239//4 238//4
f 237//4 270//4 238//4
f 236//4 269//4 237//4
f 267//4 236//4 235//4
f 266//4 235//4 234//4
f 233//4 266//4 234//4
f 264//4 233//4 232//4
f 263//4 232//4 231//4
f 262//4 231//4 230//4
f 261//4 230//4 229//4
f 260//4 229//4 228//4
f 259//4 228//4 227//4
f 258//4 227//4 226//4
f 225//4 258//4 226//4
f 256//4 225//4 224//4
f 223//4 256//4 224//4
f 254//4 223//4 222//4
f 253//4 222//4 221//4
f 252//4 221//4 220//4
f 251//4 220//4 219//4
f 218//4 251//4 219//4
f 249//4 218//4 217//4
f 280//4 217//4 248//4
f 279//4 248//4 247//4
f 278//4 247//4 246//4
f 277//4 246//4 245//4
f 244//4 277//4 245//4
f 275//4 244//4 243//4
f 274//4 243//4 242//4
f 273//4 242//4 241//4
f 272//4 241//4 240//4
f 271//4 272//4 240//4
f 270//4 271//4 239//4
f 237//4 269//4 270//4
f 236//4 268//4 269//4
f 267//4 268//4 236//4
f 266//4 267//4 235//4
f 233//4 265//4 266//4
f 264//4 265//4 233//4
f 263//4 264//4 232//4
f 262//4 263//4 231//4
f 261//4 262//4 230//4
f 260//4 261//4 229//4
f 259//4 260//4 228//4
f 258//4 259//4 227//4
f 225//4 257//4 258//4
f 256//4 257//4 225//4
f 223//4 255//4 256//4
f 254//4 255//4 223//4
f 253//4 254//4 222//4
f 252//4 253//4 221//4
f 251//4 252//4 220//4
f 218//4 250//4 251//4
f 249//4 250//4 218//4
f 280//4 249//4 217//4
f 279//4 280//4 248//4
f 278//4 279//4 247//4
f 277//4 278//4 246//4
f 244//4 276//4 277//4
f 275//4 276//4 244//4
f 274//4 275//4 243//4
f 273//4 274//4 242//4
f 272//4 273//4 241//4
usemtl Material.001
f 187//4 211//4 203//4
f 187//4 186//4 185//4
f 185//4 216//4 215//4
f 215//4 214//4 213//4
f 213//4 212//4 211//4
f 211//4 210//4 209//4
f 209//4 208//4 211//4
f 208//4 207//4 211//4
f 207//4 206//4 205//4
f 205//4 204//4 203//4
f 203//4 202//4 201//4
f 201//4 200//4 199//4
f 199//4 198//4 197//4
f 197//4 196//4 195//4
f 195//4 194//4 191//4
f 194//4 193//4 191//4
f 193//4 192//4 191//4
f 191//4 190//4 189//4
f 189//4 188//4 191//4
f 188//4 187//4 191//4
f 187//4 185//4 215//4
f 215//4 213//4 187//4
f 213//4 211//4 187//4
f 207//4 205//4 211//4
f 205//4 203//4 211//4
f 203//4 201//4 199//4
f 199//4 197//4 195//4
f 203//4 199//4 195//4
f 195//4 191//4 203//4
f 191//4 187//4 203//4
usemtl Material
f 195//4 290//4 194//4
f 195//4 292//4 291//4
f 197//4 292//4 196//4
f 198//4 293//4 197//4
f 199//4 294//4 198//4
f 200//4 295//4 199//4
f 200//4 297//4 296//4
f 202//4 297//4 201//4
f 203//4 298//4 202//4
f 204//4 299//4 203//4
f 205//4 300//4 204//4
f 206//4 301//4 205//4
f 207//4 302//4 206//4
f 207//4 304//4 303//4
f 208//4 305//4 304//4
f 210//4 305//4 209//4
f 211//4 306//4 210//4
f 212//4 307//4 211//4
f 212//4 309//4 308//4
f 214//4 309//4 213//4
f 215//4 310//4 214//4
f 216//4 311//4 215//4
f 185//4 312//4 216//4
f 185//4 282//4 281//4
f 187//4 282//4 186//4
f 188//4 283//4 187//4
f 189//4 284//4 188//4
f 190//4 285//4 189//4
f 190//4 287//4 286//4
f 192//4 287//4 191//4
f 193//4 288//4 192//4
f 194//4 289//4 193//4
f 195//4 291//4 290//4
f 195//4 196//4 292//4
f 197//4 293//4 292//4
f 198//4 294//4 293//4
f 199//4 295//4 294//4
f 200//4 296//4 295//4
f 200//4 201//4 297//4
f 202//4 298//4 297//4
f 203//4 299//4 298//4
f 204//4 300//4 299//4
f 205//4 301//4 300//4
f 206//4 302//4 301//4
f 207//4 303//4 302//4
f 207//4 208//4 304//4
f 208//4 209//4 305//4
f 210//4 306//4 305//4
f 211//4 307//4 306//4
f 212//4 308//4 307//4
f 212//4 213//4 309//4
f 214//4 310//4 309//4
f 215//4 311//4 310//4
f 216//4 312//4 311//4
f 185//4 281//4 312//4
f 185//4 186//4 282//4
f 187//4 283//4 282//4
f 188//4 284//4 283//4
f 189//4 285//4 284//4
f 190//4 286//4 285//4
f 190//4 191//4 287//4
f 192//4 288//4 287//4
f 193//4 289//4 288//4
f 194//4 290//4 289//4
o sidelines_Plane.001
v -22.500000 0.010000 -2.245000
v 22.500000 0.010000 -2.245000
v -22.500000 0.010000 -2.250000
v 22.500000 0.010000 -2.250000
v -22.500000 0.010000 2.250000
v 22.500000 0.010000 2.250000
v -22.500000 0.010000 2.245000
v 22.500000 0.010000 2.245000
vt 1.000000 0.000000
vt 0.000000 1.000000
vt 0.000000 0.000000
vt 1.000000 0.000000
vt 0.000000 1.000000
vt 0.000000 0.000000
vt 1.000000 1.000000
vt 1.000000 1.000000
vn 0.0000 1.0000 0.0000
usemtl Material.003
s off
f 314/64/5 315/65/5 313/66/5
f 318/67/5 319/68/5 317/69/5
f 314/64/5 316/70/5 315/65/5
f 318/67/5 320/71/5 319/68/5
