# Blender v3.0.1 OBJ File: 'ice.blend'
# www.blender.org
mtllib materials/ice.mtl
o rings2_Circle.004
v 16.500000 0.010000 -0.150000
v 16.470736 0.010000 -0.147118
v 16.442598 0.010000 -0.138582
v 16.416664 0.010000 -0.124720
v 16.393934 0.010000 -0.106066
v 16.375280 0.010000 -0.083336
v 16.361418 0.010000 -0.057403
v 16.352882 0.010000 -0.029264
v 16.350000 0.010000 0.000000
v 16.352882 0.010000 0.029264
v 16.361418 0.010000 0.057403
v 16.375280 0.010000 0.083336
v 16.393934 0.010000 0.106066
v 16.416664 0.010000 0.124720
v 16.442598 0.010000 0.138582
v 16.470736 0.010000 0.147118
v 16.500000 0.010000 0.150000
v 16.529264 0.010000 0.147118
v 16.557402 0.010000 0.138582
v 16.583336 0.010000 0.124720
v 16.606066 0.010000 0.106066
v 16.624720 0.010000 0.083336
v 16.638582 0.010000 0.057403
v 16.647118 0.010000 0.029264
v 16.650000 0.010000 -0.000000
v 16.647118 0.010000 -0.029264
v 16.638582 0.010000 -0.057403
v 16.624720 0.010000 -0.083336
v 16.606066 0.010000 -0.106066
v 16.583336 0.010000 -0.124720
v 16.557402 0.010000 -0.138582
v 16.529264 0.010000 -0.147118
v 16.500000 0.010000 -2.000000
v 16.109819 0.010000 -1.961571
v 15.734633 0.010000 -1.847759
v 15.388860 0.010000 -1.662939
v 15.085787 0.010000 -1.414214
v 14.837061 0.010000 -1.111140
v 14.652241 0.010000 -0.765367
v 14.538429 0.010000 -0.390181
v 14.500000 0.010000 0.000000
v 14.538429 0.010000 0.390181
v 14.652241 0.010000 0.765367
v 14.837061 0.010000 1.111140
v 15.085787 0.010000 1.414214
v 15.388860 0.010000 1.662939
v 15.734633 0.010000 1.847759
v 16.109819 0.010000 1.961571
v 16.500000 0.010000 2.000000
v 16.890181 0.010000 1.961571
v 17.265368 0.010000 1.847759
v 17.611141 0.010000 1.662939
v 17.914213 0.010000 1.414214
v 18.162939 0.010000 1.111141
v 18.347759 0.010000 0.765367
v 18.461571 0.010000 0.390181
v 18.500000 0.010000 -0.000000
v 18.461571 0.010000 -0.390181
v 18.347759 0.010000 -0.765367
v 18.162939 0.010000 -1.111140
v 17.914213 0.010000 -1.414213
v 17.611141 0.010000 -1.662939
v 17.265368 0.010000 -1.847759
v 16.890181 0.010000 -1.961571
v 16.500000 0.010000 -1.200000
v 16.265892 0.010000 -1.176942
v 16.040779 0.010000 -1.108655
v 15.833316 0.010000 -0.997764
v 15.651472 0.010000 -0.848528
v 15.502236 0.010000 -0.666684
v 15.391344 0.010000 -0.459220
v 15.323057 0.010000 -0.234108
v 15.300000 0.010000 0.000000
v 15.323057 0.010000 0.234108
v 15.391344 0.010000 0.459220
v 15.502236 0.010000 0.666684
v 15.651472 0.010000 0.848528
v 15.833316 0.010000 0.997764
v 16.040779 0.010000 1.108655
v 16.265892 0.010000 1.176942
v 16.500000 0.010000 1.200000
v 16.734108 0.010000 1.176942
v 16.959221 0.010000 1.108655
v 17.166685 0.010000 0.997763
v 17.348528 0.010000 0.848528
v 17.497763 0.010000 0.666685
v 17.608656 0.010000 0.459220
v 17.676943 0.010000 0.234108
v 17.700001 0.010000 -0.000000
v 17.676943 0.010000 -0.234109
v 17.608656 0.010000 -0.459220
v 17.497765 0.010000 -0.666684
v 17.348528 0.010000 -0.848528
v 17.166685 0.010000 -0.997764
v 16.959221 0.010000 -1.108656
v 16.734108 0.010000 -1.176942
v 16.500000 0.010000 -0.600000
v 16.382946 0.010000 -0.588471
v 16.270390 0.010000 -0.554328
v 16.166658 0.010000 -0.498882
v 16.075735 0.010000 -0.424264
v 16.001118 0.010000 -0.333342
v 15.945672 0.010000 -0.229610
v 15.911529 0.010000 -0.117054
v 15.900000 0.010000 0.000000
v 15.911529 0.010000 0.117054
v 15.945672 0.010000 0.229610
v 16.001118 0.010000 0.333342
v 16.075735 0.010000 0.424264
v 16.166658 0.010000 0.498882
v 16.270390 0.010000 0.554328
v 16.382946 0.010000 0.588471
v 16.500000 0.010000 0.600000
v 16.617054 0.010000 0.588471
v 16.729610 0.010000 0.554328
v 16.833342 0.010000 0.498882
v 16.924265 0.010000 0.424264
v 16.998882 0.010000 0.333342
v 17.054327 0.010000 0.229610
v 17.088470 0.010000 0.117054
v 17.100000 0.010000 -0.000000
v 17.088470 0.010000 -0.117054
v 17.054327 0.010000 -0.229610
v 16.998882 0.010000 -0.333342
v 16.924265 0.010000 -0.424264
v 16.833342 0.010000 -0.498882
v 16.729610 0.010000 -0.554328
v 16.617054 0.010000 -0.588471
vn 0.0000 -1.0000 0.0000
usemtl Material.002
s off
f 87//1 56//1 55//1
f 86//1 55//1 54//1
f 53//1 86//1 54//1
f 52//1 85//1 53//1
f 83//1 52//1 51//1
f 82//1 51//1 50//1
f 49//1 82//1 50//1
f 80//1 49//1 48//1
f 79//1 48//1 47//1
f 78//1 47//1 46//1
f 77//1 46//1 45//1
f 76//1 45//1 44//1
f 75//1 44//1 43//1
f 74//1 43//1 42//1
f 41//1 74//1 42//1
f 72//1 41//1 40//1
f 39//1 72//1 40//1
f 70//1 39//1 38//1
f 69//1 38//1 37//1
f 68//1 37//1 36//1
f 67//1 36//1 35//1
f 34//1 67//1 35//1
f 65//1 34//1 33//1
f 96//1 33//1 64//1
f 95//1 64//1 63//1
f 94//1 63//1 62//1
f 93//1 62//1 61//1
f 60//1 93//1 61//1
f 91//1 60//1 59//1
f 90//1 59//1 58//1
f 89//1 58//1 57//1
f 88//1 57//1 56//1
f 87//1 88//1 56//1
f 86//1 87//1 55//1
f 53//1 85//1 86//1
f 52//1 84//1 85//1
f 83//1 84//1 52//1
f 82//1 83//1 51//1
f 49//1 81//1 82//1
f 80//1 81//1 49//1
f 79//1 80//1 48//1
f 78//1 79//1 47//1
f 77//1 78//1 46//1
f 76//1 77//1 45//1
f 75//1 76//1 44//1
f 74//1 75//1 43//1
f 41//1 73//1 74//1
f 72//1 73//1 41//1
f 39//1 71//1 72//1
f 70//1 71//1 39//1
f 69//1 70//1 38//1
f 68//1 69//1 37//1
f 67//1 68//1 36//1
f 34//1 66//1 67//1
f 65//1 66//1 34//1
f 96//1 65//1 33//1
f 95//1 96//1 64//1
f 94//1 95//1 63//1
f 93//1 94//1 62//1
f 60//1 92//1 93//1
f 91//1 92//1 60//1
f 90//1 91//1 59//1
f 89//1 90//1 58//1
f 88//1 89//1 57//1
usemtl Material.001
f 3//1 27//1 19//1
f 3//1 2//1 1//1
f 1//1 32//1 31//1
f 31//1 30//1 29//1
f 29//1 28//1 27//1
f 27//1 26//1 25//1
f 25//1 24//1 27//1
f 24//1 23//1 27//1
f 23//1 22//1 21//1
f 21//1 20//1 19//1
f 19//1 18//1 17//1
f 17//1 16//1 15//1
f 15//1 14//1 13//1
f 13//1 12//1 11//1
f 11//1 10//1 7//1
f 10//1 9//1 7//1
f 9//1 8//1 7//1
f 7//1 6//1 5//1
f 5//1 4//1 7//1
f 4//1 3//1 7//1
f 3//1 1//1 31//1
f 31//1 29//1 3//1
f 29//1 27//1 3//1
f 23//1 21//1 27//1
f 21//1 19//1 27//1
f 19//1 17//1 15//1
f 15//1 13//1 11//1
f 19//1 15//1 11//1
f 11//1 7//1 19//1
f 7//1 3//1 19//1
usemtl Material
f 11//1 106//1 10//1
f 11//1 108//1 107//1
f 13//1 108//1 12//1
f 14//1 109//1 13//1
f 15//1 110//1 14//1
f 16//1 111//1 15//1
f 16//1 113//1 112//1
f 18//1 113//1 17//1
f 19//1 114//1 18//1
f 20//1 115//1 19//1
f 21//1 116//1 20//1
f 22//1 117//1 21//1
f 23//1 118//1 22//1
f 23//1 120//1 119//1
f 24//1 121//1 120//1
f 26//1 121//1 25//1
f 27//1 122//1 26//1
f 28//1 123//1 27//1
f 28//1 125//1 124//1
f 30//1 125//1 29//1
f 31//1 126//1 30//1
f 32//1 127//1 31//1
f 1//1 128//1 32//1
f 1//1 98//1 97//1
f 3//1 98//1 2//1
f 4//1 99//1 3//1
f 5//1 100//1 4//1
f 6//1 101//1 5//1
f 6//1 103//1 102//1
f 8//1 103//1 7//1
f 9//1 104//1 8//1
f 10//1 105//1 9//1
f 11//1 107//1 106//1
f 11//1 12//1 108//1
f 13//1 109//1 108//1
f 14//1 110//1 109//1
f 15//1 111//1 110//1
f 16//1 112//1 111//1
f 16//1 17//1 113//1
f 18//1 114//1 113//1
f 19//1 115//1 114//1
f 20//1 116//1 115//1
f 21//1 117//1 116//1
f 22//1 118//1 117//1
f 23//1 119//1 118//1
f 23//1 24//1 120//1
f 24//1 25//1 121//1
f 26//1 122//1 121//1
f 27//1 123//1 122//1
f 28//1 124//1 123//1
f 28//1 29//1 125//1
f 30//1 126//1 125//1
f 31//1 127//1 126//1
f 32//1 128//1 127//1
f 1//1 97//1 128//1
f 1//1 2//1 98//1
f 3//1 99//1 98//1
f 4//1 100//1 99//1
f 5//1 101//1 100//1
f 6//1 102//1 101//1
f 6//1 7//1 103//1
f 8//1 104//1 103//1
f 9//1 105//1 104//1
f 10//1 106//1 105//1
o ice_Plane.008
v -16.505426 0.000740 2.250664
v -16.494951 -0.000188 2.249889
v -16.505426 0.000740 -2.249336
v -16.494951 -0.000188 -2.250111
v -22.499950 -0.000188 2.249889
v 22.500053 -0.000188 2.249889
v -22.499950 -0.000188 -2.250111
v 22.500053 -0.000188 -2.250111
v -22.500427 0.000740 0.023164
v 22.500053 -0.000188 0.022389
v -22.499950 -0.000188 -0.022611
v 22.500053 -0.000188 -0.022611
v -10.549950 -0.000188 2.249890
v -10.449950 -0.000188 2.249890
v -10.549950 -0.000188 -2.250111
v -10.449950 -0.000188 -2.250111
v 10.450053 -0.000188 2.249890
v 10.550052 -0.000188 2.249890
v 10.450053 -0.000188 -2.250111
v 10.550052 -0.000188 -2.250111
v -10.550426 0.000740 0.023164
v 10.450049 -0.000188 0.022389
v 10.550050 -0.000188 0.022389
v -10.449950 -0.000188 0.022389
v -10.449950 -0.000188 -0.022611
v 10.450049 -0.000188 -0.022611
v 10.550050 -0.000188 -0.022611
v -10.549950 -0.000188 -0.022611
v -18.504950 -0.000188 2.249889
v -18.494951 -0.000188 2.249889
v -18.504950 -0.000188 -2.250111
v -18.494951 -0.000188 -2.250111
v 18.495052 -0.000188 2.249889
v 18.505051 -0.000188 2.249889
v 18.495052 -0.000188 -2.250111
v 18.505051 -0.000188 -2.250111
v 16.495052 -0.000188 2.249889
v 16.505051 -0.000188 2.249889
v 16.495052 -0.000188 -2.250111
v 16.505051 -0.000188 -2.250111
v 18.495052 -0.000188 -0.022611
v 16.505051 -0.000188 -0.022611
v 16.495052 -0.000188 -0.022611
v 18.505051 -0.000188 0.022389
v 18.505051 -0.000188 -0.022611
v 18.495052 -0.000188 0.022389
v 16.505051 -0.000188 0.022389
v 16.495052 -0.000188 0.022389
v -16.505426 0.000740 -0.022611
v -18.504950 0.000740 0.023164
v -18.494951 0.000740 0.023164
v -16.505426 0.000740 0.023164
v -16.494951 0.000740 0.023164
v -18.504950 0.000431 -0.022611
v -18.494949 0.000432 -0.022611
v -16.494951 0.000739 -0.022611
vt 0.000000 0.000000
vt 0.000000 0.000000
vt 0.000000 0.000000
vt 0.000000 0.000000
vt 0.000000 0.000000
vt 0.000000 0.000000
vt 0.000000 0.000000
vt 0.000000 0.000000
vt 0.000000 0.000000
vt 0.000000 1.000000
vt 1.000000 0.505000
vt 0.000000 0.505000
vt 0.000000 0.000000
vt 0.000000 0.000000
vt 0.000000 0.000000
vt 0.000000 0.000000
vt 0.000000 0.000000
vt 0.000000 0.000000
vt 0.000000 0.000000
vt 1.000000 0.000000
vt 0.000000 0.000000
vt 0.000000 0.505000
vt 1.000000 1.000000
vt 1.000000 0.505000
vt 0.000000 0.000000
vt 1.000000 0.000000
vt 0.000000 0.000000
vt 0.000000 0.000000
vt 1.000000 0.000000
vt 0.000000 0.000000
vt 1.000000 1.000000
vt 0.000000 0.000000
vt 0.000000 0.000000
vt 0.000000 0.000000
vt 0.000000 0.000000
vt 0.000000 0.000000
vt 0.000000 0.000000
vt 0.000000 0.000000
vt 0.000000 0.000000
vt 0.000000 0.000000
vt 0.000000 0.000000
vt 0.000000 0.000000
vt 0.000000 0.000000
vt 0.000000 1.000000
vt 0.000000 0.000000
vt 1.000000 1.000000
vt 0.000000 0.000000
vt 0.000000 0.000000
vt 0.000000 0.000000
vt 0.000000 1.000000
vt 0.000000 0.000000
vt 0.000000 0.000000
vt 1.000000 0.505000
vt 0.000000 0.000000
vt 0.000000 0.000000
vt 0.000000 0.000000
vt 0.000000 0.000000
vt 0.000000 0.000000
vt 0.000000 0.000000
vt 0.000000 0.000000
vt 0.000000 0.000000
vt 1.000000 0.495000
vt 0.000000 0.505000
vt 0.000000 0.495000
vt 1.000000 0.495000
vn -0.0000 1.0000 0.0004
vn 0.0000 1.0000 0.0000
vn 0.0002 -1.0000 0.0000
vn 0.0002 1.0000 -0.0004
vn -0.0002 1.0000 0.0000
vn 0.0005 -1.0000 0.0003
vn -0.0005 1.0000 0.0000
vn 0.0000 1.0000 -0.0003
vn 0.0002 0.9998 -0.0203
vn 0.0000 -1.0000 0.0067
vn 0.0000 -1.0000 0.0068
vn 0.0002 -1.0000 0.0068
vn 0.0091 0.9998 -0.0202
vn 0.0002 1.0000 0.0000
vn 0.0002 -1.0000 0.0067
vn 0.0000 -0.9998 0.0203
vn 0.0092 1.0000 0.0000
vn 0.0002 -1.0000 0.0003
vn 0.0882 0.9961 -0.0004
vn 0.0883 0.9961 0.0000
vn 0.0000 -1.0000 0.0003
usemtl Material.001
s off
f 149/1/2 130/2/2 141/3/2
f 154/4/3 144/5/3 153/6/3
f 183/7/4 131/8/4 177/9/4
f 163/10/3 170/11/3 169/12/3
f 142/13/3 150/14/3 152/15/3
f 156/16/5 132/17/5 184/18/5
f 176/19/3 146/20/3 165/21/3
f 171/22/3 148/23/3 155/24/3
f 174/25/3 166/26/3 161/27/3
f 138/28/3 162/29/3 134/30/3
f 164/31/3 140/32/3 136/33/3
f 158/34/2 180/35/2 179/36/2
f 182/37/6 135/38/6 139/39/6
f 133/40/2 178/41/2 137/42/2
f 149/1/2 181/43/2 130/2/2
f 154/4/3 147/44/3 144/5/3
f 183/7/7 160/45/7 131/8/7
f 163/10/3 168/46/3 170/11/3
f 142/13/3 145/47/3 150/14/3
f 156/16/3 143/48/3 132/17/3
f 176/19/3 151/49/3 146/20/3
f 171/22/3 167/50/3 148/23/3
f 174/25/3 175/51/3 166/26/3
f 138/28/3 172/52/3 162/29/3
f 164/31/3 173/53/3 140/32/3
f 158/34/8 129/54/8 180/35/8
f 182/37/9 159/55/9 135/38/9
f 133/40/2 157/56/2 178/41/2
usemtl Material.002
f 174/25/3 173/57/3 169/58/3
f 151/49/3 171/59/3 155/60/3
f 176/19/3 170/61/3 171/59/3
f 153/6/3 150/14/3 154/4/3
f 150/14/3 155/60/3 154/4/3
f 173/53/3 138/28/3 140/32/3
f 175/51/3 169/58/3 170/61/3
f 156/16/3 152/15/3 153/6/3
f 184/18/10 149/1/10 156/16/10
f 184/18/3 180/35/3 181/43/3
f 183/7/11 180/35/11 179/36/11
f 182/37/12 179/36/12 178/41/12
f 178/41/13 139/39/13 182/37/13
f 174/25/3 172/52/3 173/57/3
f 151/49/3 176/19/3 171/59/3
f 176/19/3 175/51/3 170/61/3
f 153/6/3 152/15/3 150/14/3
f 150/14/3 151/49/3 155/60/3
f 173/53/3 172/52/3 138/28/3
f 175/51/3 174/25/3 169/58/3
f 156/16/14 149/1/14 152/15/14
f 184/18/3 181/43/3 149/1/3
f 184/18/15 177/9/15 180/35/15
f 183/7/4 177/9/4 180/35/4
f 182/37/16 183/7/16 179/36/16
f 178/41/17 137/42/17 139/39/17
usemtl Material
f 151/62/3 145/47/3 146/20/3
f 142/13/2 149/1/2 141/3/2
f 155/24/3 147/44/3 154/63/3
f 144/5/3 156/16/3 153/6/3
f 151/62/3 150/14/3 145/47/3
f 142/13/18 152/15/18 149/1/18
f 155/24/3 148/23/3 147/44/3
f 144/5/3 143/48/3 156/16/3
usemtl Material.003
f 171/22/3 168/46/3 167/50/3
f 166/26/3 176/64/3 165/21/3
f 164/31/3 169/58/3 173/57/3
f 161/27/3 172/52/3 174/25/3
f 182/37/19 160/45/19 183/7/19
f 131/8/20 184/18/20 132/17/20
f 130/2/21 180/35/21 129/54/21
f 179/36/2 157/56/2 158/34/2
f 171/22/3 170/61/3 168/46/3
f 166/26/3 175/65/3 176/64/3
f 164/31/3 163/10/3 169/58/3
f 161/27/3 162/29/3 172/52/3
f 182/37/22 159/55/22 160/45/22
f 131/8/15 177/9/15 184/18/15
f 130/2/2 181/43/2 180/35/2
f 179/36/2 178/41/2 157/56/2
l 130 142
l 161 146
l 142 161
l 164 148
l 131 135
l 133 129
l 143 131
o rings1_Circle.005
v -16.500000 0.010000 -0.150000
v -16.529264 0.010000 -0.147118
v -16.557402 0.010000 -0.138582
v -16.583336 0.010000 -0.124720
v -16.606066 0.010000 -0.106066
v -16.624720 0.010000 -0.083336
v -16.638582 0.010000 -0.057403
v -16.647118 0.010000 -0.029264
v -16.650000 0.010000 0.000000
v -16.647118 0.010000 0.029264
v -16.638582 0.010000 0.057403
v -16.624720 0.010000 0.083336
v -16.606066 0.010000 0.106066
v -16.583336 0.010000 0.124720
v -16.557402 0.010000 0.138582
v -16.529264 0.010000 0.147118
v -16.500000 0.010000 0.150000
v -16.470736 0.010000 0.147118
v -16.442598 0.010000 0.138582
v -16.416664 0.010000 0.124720
v -16.393934 0.010000 0.106066
v -16.375280 0.010000 0.083336
v -16.361418 0.010000 0.057403
v -16.352882 0.010000 0.029264
v -16.350000 0.010000 -0.000000
v -16.352882 0.010000 -0.029264
v -16.361418 0.010000 -0.057403
v -16.375280 0.010000 -0.083336
v -16.393934 0.010000 -0.106066
v -16.416664 0.010000 -0.124720
v -16.442598 0.010000 -0.138582
v -16.470736 0.010000 -0.147118
v -16.500000 0.010000 -2.000000
v -16.890181 0.010000 -1.961571
v -17.265368 0.010000 -1.847759
v -17.611141 0.010000 -1.662939
v -17.914213 0.010000 -1.414214
v -18.162939 0.010000 -1.111140
v -18.347759 0.010000 -0.765367
v -18.461571 0.010000 -0.390181
v -18.500000 0.010000 0.000000
v -18.461571 0.010000 0.390181
v -18.347759 0.010000 0.765367
v -18.162939 0.010000 1.111140
v -17.914213 0.010000 1.414214
v -17.611141 0.010000 1.662939
v -17.265368 0.010000 1.847759
v -16.890181 0.010000 1.961571
v -16.500000 0.010000 2.000000
v -16.109819 0.010000 1.961571
v -15.734633 0.010000 1.847759
v -15.388860 0.010000 1.662939
v -15.085787 0.010000 1.414214
v -14.837061 0.010000 1.111141
v -14.652241 0.010000 0.765367
v -14.538429 0.010000 0.390181
v -14.500000 0.010000 -0.000000
v -14.538429 0.010000 -0.390181
v -14.652241 0.010000 -0.765367
v -14.837061 0.010000 -1.111140
v -15.085786 0.010000 -1.414213
v -15.388860 0.010000 -1.662939
v -15.734633 0.010000 -1.847759
v -16.109819 0.010000 -1.961571
v -16.500000 0.010000 -1.200000
v -16.734108 0.010000 -1.176942
v -16.959221 0.010000 -1.108655
v -17.166685 0.010000 -0.997764
v -17.348528 0.010000 -0.848528
v -17.497763 0.010000 -0.666684
v -17.608656 0.010000 -0.459220
v -17.676943 0.010000 -0.234108
v -17.700001 0.010000 0.000000
v -17.676943 0.010000 0.234108
v -17.608656 0.010000 0.459220
v -17.497765 0.010000 0.666684
v -17.348528 0.010000 0.848528
v -17.166685 0.010000 0.997764
v -16.959221 0.010000 1.108655
v -16.734108 0.010000 1.176942
v -16.500000 0.010000 1.200000
v -16.265892 0.010000 1.176942
v -16.040779 0.010000 1.108655
v -15.833316 0.010000 0.997763
v -15.651472 0.010000 0.848528
v -15.502236 0.010000 0.666685
v -15.391344 0.010000 0.459220
v -15.323057 0.010000 0.234108
v -15.300000 0.010000 -0.000000
v -15.323057 0.010000 -0.234109
v -15.391345 0.010000 -0.459220
v -15.502236 0.010000 -0.666684
v -15.651472 0.010000 -0.848528
v -15.833316 0.010000 -0.997764
v -16.040779 0.010000 -1.108656
v -16.265892 0.010000 -1.176942
v -16.500000 0.010000 -0.600000
v -16.617054 0.010000 -0.588471
v -16.729610 0.010000 -0.554328
v -16.833342 0.010000 -0.498882
v -16.924265 0.010000 -0.424264
v -16.998882 0.010000 -0.333342
v -17.054327 0.010000 -0.229610
v -17.088470 0.010000 -0.117054
v -17.100000 0.010000 0.000000
v -17.088470 0.010000 0.117054
v -17.054327 0.010000 0.229610
v -16.998882 0.010000 0.333342
v -16.924265 0.010000 0.424264
v -16.833342 0.010000 0.498882
v -16.729610 0.010000 0.554328
v -16.617054 0.010000 0.588471
v -16.500000 0.010000 0.600000
v -16.382946 0.010000 0.588471
v -16.270390 0.010000 0.554328
v -16.166658 0.010000 0.498882
v -16.075735 0.010000 0.424264
v -16.001118 0.010000 0.333342
v -15.945672 0.010000 0.229610
v -15.911529 0.010000 0.117054
v -15.900000 0.010000 -0.000000
v -15.911529 0.010000 -0.117054
v -15.945672 0.010000 -0.229610
v -16.001118 0.010000 -0.333342
v -16.075735 0.010000 -0.424264
v -16.166658 0.010000 -0.498882
v -16.270390 0.010000 -0.554328
v -16.382946 0.010000 -0.588471
vn 0.0000 -1.0000 0.0000
usemtl Material.002
s off
f 271//23 240//23 239//23
f 270//23 239//23 238//23
f 237//23 270//23 238//23
f 236//23 269//23 237//23
f 267//23 236//23 235//23
f 266//23 235//23 234//23
f 233//23 266//23 234//23
f 264//23 233//23 232//23
f 263//23 232//23 231//23
f 262//23 231//23 230//23
f 261//23 230//23 229//23
f 260//23 229//23 228//23
f 259//23 228//23 227//23
f 258//23 227//23 226//23
f 225//23 258//23 226//23
f 256//23 225//23 224//23
f 223//23 256//23 224//23
f 254//23 223//23 222//23
f 253//23 222//23 221//23
f 252//23 221//23 220//23
f 251//23 220//23 219//23
f 218//23 251//23 219//23
f 249//23 218//23 217//23
f 280//23 217//23 248//23
f 279//23 248//23 247//23
f 278//23 247//23 246//23
f 277//23 246//23 245//23
f 244//23 277//23 245//23
f 275//23 244//23 243//23
f 274//23 243//23 242//23
f 273//23 242//23 241//23
f 272//23 241//23 240//23
f 271//23 272//23 240//23
f 270//23 271//23 239//23
f 237//23 269//23 270//23
f 236//23 268//23 269//23
f 267//23 268//23 236//23
f 266//23 267//23 235//23
f 233//23 265//23 266//23
f 264//23 265//23 233//23
f 263//23 264//23 232//23
f 262//23 263//23 231//23
f 261//23 262//23 230//23
f 260//23 261//23 229//23
f 259//23 260//23 228//23
f 258//23 259//23 227//23
f 225//23 257//23 258//23
f 256//23 257//23 225//23
f 223//23 255//23 256//23
f 254//23 255//23 223//23
f 253//23 254//23 222//23
f 252//23 253//23 221//23
f 251//23 252//23 220//23
f 218//23 250//23 251//23
f 249//23 250//23 218//23
f 280//23 249//23 217//23
f 279//23 280//23 248//23
f 278//23 279//23 247//23
f 277//23 278//23 246//23
f 244//23 276//23 277//23
f 275//23 276//23 244//23
f 274//23 275//23 243//23
f 273//23 274//23 242//23
f 272//23 273//23 241//23
usemtl Material.001
f 187//23 211//23 203//23
f 187//23 186//23 185//23
f 185//23 216//23 215//23
f 215//23 214//23 213//23
f 213//23 212//23 211//23
f 211//23 210//23 209//23
f 209//23 208//23 211//23
f 208//23 207//23 211//23
f 207//23 206//23 205//23
f 205//23 204//23 203//23
f 203//23 202//23 201//23
f 201//23 200//23 199//23
f 199//23 198//23 197//23
f 197//23 196//23 195//23
f 195//23 194//23 191//23
f 194//23 193//23 191//23
f 193//23 192//23 191//23
f 191//23 190//23 189//23
f 189//23 188//23 191//23
f 188//23 187//23 191//23
f 187//23 185//23 215//23
f 215//23 213//23 187//23
f 213//23 211//23 187//23
f 207//23 205//23 211//23
f 205//23 203//23 211//23
f 203//23 201//23 199//23
f 199//23 197//23 195//23
f 203//23 199//23 195//23
f 195//23 191//23 203//23
f 191//23 187//23 203//23
usemtl Material
f 195//23 290//23 194//23
f 195//23 292//23 291//23
f 197//23 292//23 196//23
f 198//23 293//23 197//23
f 199//23 294//23 198//23
f 200//23 295//23 199//23
f 200//23 297//23 296//23
f 202//23 297//23 201//23
f 203//23 298//23 202//23
f 204//23 299//23 203//23
f 205//23 300//23 204//23
f 206//23 301//23 205//23
f 207//23 302//23 206//23
f 207//23 304//23 303//23
f 208//23 305//23 304//23
f 210//23 305//23 209//23
f 211//23 306//23 210//23
f 212//23 307//23 211//23
f 212//23 309//23 308//23
f 214//23 309//23 213//23
f 215//23 310//23 214//23
f 216//23 311//23 215//23
f 185//23 312//23 216//23
f 185//23 282//23 281//23
f 187//23 282//23 186//23
f 188//23 283//23 187//23
f 189//23 284//23 188//23
f 190//23 285//23 189//23
f 190//23 287//23 286//23
f 192//23 287//23 191//23
f 193//23 288//23 192//23
f 194//23 289//23 193//23
f 195//23 291//23 290//23
f 195//23 196//23 292//23
f 197//23 293//23 292//23
f 198//23 294//23 293//23
f 199//23 295//23 294//23
f 200//23 296//23 295//23
f 200//23 201//23 297//23
f 202//23 298//23 297//23
f 203//23 299//23 298//23
f 204//23 300//23 299//23
f 205//23 301//23 300//23
f 206//23 302//23 301//23
f 207//23 303//23 302//23
f 207//23 208//23 304//23
f 208//23 209//23 305//23
f 210//23 306//23 305//23
f 211//23 307//23 306//23
f 212//23 308//23 307//23
f 212//23 213//23 309//23
f 214//23 310//23 309//23
f 215//23 311//23 310//23
f 216//23 312//23 311//23
f 185//23 281//23 312//23
f 185//23 186//23 282//23
f 187//23 283//23 282//23
f 188//23 284//23 283//23
f 189//23 285//23 284//23
f 190//23 286//23 285//23
f 190//23 191//23 287//23
f 192//23 288//23 287//23
f 193//23 289//23 288//23
f 194//23 290//23 289//23
